<?xml version="1.0" encoding="UTF-8" standalone="no"?>
<!DOCTYPE svg PUBLIC "-//W3C//DTD SVG 1.1//EN"
 "http://www.w3.org/Graphics/SVG/1.1/DTD/svg11.dtd">
<!-- Generated by graphviz version 2.31.20130719.0446 (20130719.0446)
 -->
<!-- Title: G Pages: 1 -->
<svg width="226pt" height="188pt"
 viewBox="0.00 0.00 226.00 188.00" xmlns="http://www.w3.org/2000/svg" xmlns:xlink="http://www.w3.org/1999/xlink">
<g id="graph0" class="graph" transform="scale(1 1) rotate(0) translate(4 184)">
<title>G</title>
<polygon fill="white" stroke="white" points="-4,5 -4,-184 223,-184 223,5 -4,5"/>
<!-- VentWords -->
<!-- asdasd -->
<g id="node1" class="node"><title>VentWords</title>
<polygon fill="none" stroke="blue" points="107,-180 15,-180 15,-144 107,-144 107,-180"/>
<text text-anchor="middle" x="61" y="-158.3" font-family="Geneva" font-size="14.00" fill="blue">VentWords</text>
</g>
<!-- WorkCharCount -->
<!-- asdasd -->
<g id="node2" class="node"><title>WorkCharCount</title>
<polygon fill="none" stroke="blue" points="122,-108 7.10543e-15,-108 7.10543e-15,-72 122,-72 122,-108"/>
<text text-anchor="middle" x="61" y="-86.3" font-family="Geneva" font-size="14.00" fill="blue">WorkCharCount</text>
</g>
<!-- VentWords&#45;&gt;WorkCharCount -->
<g id="edge1" class="edge"><title>VentWords&#45;&gt;WorkCharCount</title>
<path fill="none" stroke="blue" d="M61,-143.697C61,-135.983 61,-126.712 61,-118.112"/>
<polygon fill="blue" stroke="blue" points="64.5001,-118.104 61,-108.104 57.5001,-118.104 64.5001,-118.104"/>
</g>
<!-- SinkAvg -->
<!-- asdasd -->
<g id="node3" class="node"><title>SinkAvg</title>
<polygon fill="none" stroke="blue" points="96.25,-36 25.75,-36 25.75,-0 96.25,-0 96.25,-36"/>
<text text-anchor="middle" x="61" y="-14.3" font-family="Geneva" font-size="14.00" fill="blue">SinkAvg</text>
</g>
<!-- WorkCharCount&#45;&gt;SinkAvg -->
<g id="edge2" class="edge"><title>WorkCharCount&#45;&gt;SinkAvg</title>
<path fill="none" stroke="blue" d="M61,-71.6966C61,-63.9827 61,-54.7125 61,-46.1124"/>
<polygon fill="blue" stroke="blue" points="64.5001,-46.1043 61,-36.1043 57.5001,-46.1044 64.5001,-46.1043"/>
</g>
<!-- GrimReaper -->
<!-- asdasd -->
<g id="node4" class="node"><title>GrimReaper</title>
<polygon fill="none" stroke="blue" points="218.25,-180 125.75,-180 125.75,-144 218.25,-144 218.25,-180"/>
<text text-anchor="middle" x="172" y="-158.3" font-family="Geneva" font-size="14.00" fill="blue">GrimReaper</text>
</g>
</g>
</svg>
